<?xml version="1.0" encoding="UTF-8" standalone="no"?>
<!-- Created with Inkscape (http://www.inkscape.org/) -->
<svg
   xmlns:dc="http://purl.org/dc/elements/1.1/"
   xmlns:cc="http://web.resource.org/cc/"
   xmlns:rdf="http://www.w3.org/1999/02/22-rdf-syntax-ns#"
   xmlns:svg="http://www.w3.org/2000/svg"
   xmlns="http://www.w3.org/2000/svg"
   xmlns:xlink="http://www.w3.org/1999/xlink"
   xmlns:sodipodi="http://sodipodi.sourceforge.net/DTD/sodipodi-0.dtd"
   xmlns:inkscape="http://www.inkscape.org/namespaces/inkscape"
   width="43"
   height="13"
   id="svg2"
   sodipodi:version="0.32"
   inkscape:version="0.45.1"
   version="1.0"
   sodipodi:docbase="C:\Users\Simon\Pictures"
   sodipodi:docname="BBC HD.svg"
   inkscape:output_extension="org.inkscape.output.svg.inkscape">
  <defs
     id="defs4">


  </defs>
  <sodipodi:namedview
     id="base"
     pagecolor="#ffffff"
     bordercolor="#666666"
     borderopacity="1.0"
     gridtolerance="10000"
     guidetolerance="10"
     objecttolerance="10"
     inkscape:pageopacity="0.0"
     inkscape:pageshadow="2"
     inkscape:zoom="15.273806"
     inkscape:cx="21.768043"
     inkscape:cy="6.0886849"
     inkscape:document-units="px"
     inkscape:current-layer="layer1"
     width="43px"
     height="13px"
     inkscape:window-width="784"
     inkscape:window-height="575"
     inkscape:window-x="-32"
     inkscape:window-y="-5" />
  <metadata
     id="metadata7">
    <rdf:RDF>
      <cc:Work
         rdf:about="">
        <dc:format>image/svg+xml</dc:format>
        <dc:type
           rdf:resource="http://purl.org/dc/dcmitype/StillImage" />
      </cc:Work>
    </rdf:RDF>
  </metadata>
  <g
     inkscape:label="Layer 1"
     inkscape:groupmode="layer"
     id="layer1"
     transform="translate(-1.7983696,-1038.4528)">
    <path
       id="path15575"
       d="M 31.502085,1040.7937 L 31.502085,1049.0677 L 22.711085,1049.0677 L 22.711085,1040.7937 L 31.502085,1040.7937 z M 28.249085,1041.9467 L 28.131085,1041.9247 L 28.083085,1041.9187 L 27.879085,1041.8957 L 27.739085,1041.8857 L 27.494085,1041.8777 L 27.403085,1041.8777 L 27.207085,1041.8877 L 27.100085,1041.8957 L 26.946085,1041.9127 L 26.903085,1041.9187 L 26.856085,1041.9247 L 26.797085,1041.9347 L 26.721085,1041.9487 L 26.619085,1041.9677 C 26.410085,1042.0107 26.217085,1042.0717 26.039085,1042.1397 C 25.947085,1042.1747 25.860085,1042.2137 25.776085,1042.2547 L 25.573085,1042.3627 L 25.393085,1042.4737 L 25.295085,1042.5417 L 25.215085,1042.6007 L 25.055085,1042.7317 L 24.919085,1042.8607 L 24.811085,1042.9717 L 24.706085,1043.0927 L 24.600085,1043.2317 L 24.526085,1043.3387 L 24.479085,1043.4147 C 24.387085,1043.5657 24.307085,1043.7257 24.240085,1043.8957 C 24.158085,1044.1107 24.098085,1044.3387 24.066085,1044.5827 L 24.042085,1044.8197 L 24.037085,1045.0047 L 24.040085,1045.1437 L 24.053085,1045.2877 L 24.057085,1045.3217 L 24.082085,1045.4857 L 24.096085,1045.5497 L 24.127085,1045.6827 L 24.178085,1045.8507 L 24.251085,1046.0457 C 24.293085,1046.1477 24.340085,1046.2447 24.391085,1046.3367 L 24.481085,1046.4927 L 24.557085,1046.6107 L 24.663085,1046.7527 L 24.777085,1046.8877 L 24.915085,1047.0357 L 24.941085,1047.0617 L 25.067085,1047.1767 L 25.167085,1047.2607 L 25.274085,1047.3407 L 25.414085,1047.4367 L 25.580085,1047.5377 C 25.697085,1047.6027 25.824085,1047.6647 25.965085,1047.7217 L 26.129085,1047.7817 L 26.301085,1047.8367 C 26.404085,1047.8657 26.510085,1047.8917 26.621085,1047.9127 C 26.710085,1047.9307 26.805085,1047.9447 26.902085,1047.9557 C 26.997085,1047.9677 27.098085,1047.9777 27.200085,1047.9817 L 27.352085,1047.9877 L 27.424085,1047.9897 C 27.610085,1047.9897 27.781085,1047.9817 27.938085,1047.9677 L 27.969085,1047.9657 L 28.154085,1047.9467 L 28.411085,1047.9067 L 28.563085,1047.8757 L 28.780085,1047.8247 L 28.926085,1047.7817 L 29.088085,1047.7297 L 29.139085,1047.7117 L 29.238085,1047.6747 L 29.428085,1047.5987 L 29.566085,1047.5377 L 29.698085,1047.4737 L 29.756085,1047.4467 L 29.756085,1046.3177 L 29.717085,1046.3427 L 29.639085,1046.3877 L 29.412085,1046.5207 L 29.172085,1046.6437 C 29.032085,1046.7077 28.899085,1046.7647 28.768085,1046.8097 C 28.524085,1046.8977 28.297085,1046.9557 28.098085,1046.9897 L 28.029085,1047.0007 L 27.870085,1047.0207 L 27.653085,1047.0377 L 27.532085,1047.0417 L 27.286085,1047.0317 C 27.188085,1047.0247 27.088085,1047.0147 26.988085,1046.9987 C 26.824085,1046.9697 26.660085,1046.9287 26.500085,1046.8717 L 26.430085,1046.8427 L 26.383085,1046.8247 L 26.305085,1046.7897 L 26.141085,1046.7057 L 26.063085,1046.6587 L 25.983085,1046.6047 L 25.885085,1046.5337 L 25.797085,1046.4617 L 25.760085,1046.4267 L 25.740085,1046.4107 L 25.729085,1046.3997 L 25.717085,1046.3877 L 25.576085,1046.2357 L 25.510085,1046.1477 L 25.451085,1046.0657 L 25.403085,1045.9857 L 25.338085,1045.8657 L 25.292085,1045.7647 L 25.229085,1045.5967 L 25.195085,1045.4717 C 25.164085,1045.3547 25.150085,1045.2467 25.141085,1045.1557 L 25.135085,1045.0577 L 25.131085,1044.9407 L 25.133085,1044.8697 C 25.135085,1044.8057 25.141085,1044.7237 25.154085,1044.6297 L 25.188085,1044.4497 L 25.223085,1044.3217 L 25.266085,1044.1987 L 25.301085,1044.1147 L 25.356085,1043.9987 L 25.405085,1043.9127 L 25.531085,1043.7217 L 25.584085,1043.6537 L 25.659085,1043.5657 L 25.700085,1043.5227 C 25.907085,1043.3157 26.139085,1043.1627 26.381085,1043.0517 L 26.493085,1043.0047 L 26.609085,1042.9637 L 26.735085,1042.9247 L 26.854085,1042.8937 L 26.973085,1042.8697 L 27.104085,1042.8507 L 27.233085,1042.8347 L 27.475085,1042.8247 L 27.553085,1042.8247 L 27.723085,1042.8327 L 27.837085,1042.8407 L 28.042085,1042.8657 L 28.209085,1042.8957 L 28.430085,1042.9467 L 28.549085,1042.9797 L 28.688085,1043.0247 L 28.784085,1043.0577 L 28.947085,1043.1217 L 29.154085,1043.2117 L 29.309085,1043.2857 L 29.422085,1043.3427 L 29.578085,1043.4267 L 29.694085,1043.4897 L 29.694085,1042.3817 C 29.694085,1042.3817 29.624085,1042.3527 29.506085,1042.3077 L 29.320085,1042.2397 L 29.195085,1042.1967 L 29.085085,1042.1587 L 28.954085,1042.1177 L 28.854085,1042.0867 L 28.824085,1042.0787 L 28.723085,1042.0517 L 28.602085,1042.0187 L 28.522085,1042.0007 L 28.389085,1041.9717 L 28.249085,1041.9467"
       style="fill:#000000;fill-rule:nonzero;stroke:none" />
    <path
       style="fill:#000000;fill-rule:nonzero;stroke:none"
       d="M 15.954985,1045.357 L 15.954985,1046.982 L 17.009985,1046.982 L 17.066985,1046.98 L 17.212985,1046.972 C 17.327985,1046.96 17.478985,1046.941 17.624985,1046.892 C 17.757985,1046.847 17.886985,1046.779 17.985985,1046.681 L 18.079985,1046.564 C 18.161985,1046.433 18.183985,1046.3 18.188985,1046.226 L 18.190985,1046.173 L 18.190985,1046.134 L 18.167985,1045.976 L 18.044985,1045.728 L 18.003985,1045.683 L 17.909985,1045.599 L 17.714985,1045.49 C 17.618985,1045.449 17.513985,1045.417 17.396985,1045.396 L 17.208985,1045.368 L 17.087985,1045.361 L 16.976985,1045.357 L 15.954985,1045.357"
       id="path15579" />
    <path
       style="fill:#000000;fill-rule:nonzero;stroke:none"
       d="M 15.954985,1042.8839 L 15.954985,1044.4249 L 16.466985,1044.4249 L 16.544985,1044.4249 L 16.659985,1044.4189 C 16.765985,1044.4109 16.911985,1044.3959 17.056985,1044.3549 L 17.141985,1044.3289 C 17.255985,1044.2879 17.364985,1044.2279 17.450985,1044.1459 L 17.591985,1043.9329 L 17.646985,1043.6999 L 17.650985,1043.6149 L 17.649985,1043.5479 C 17.645985,1043.4799 17.630985,1043.3719 17.579985,1043.2669 L 17.471985,1043.1199 L 17.268985,1042.9879 C 17.124985,1042.9229 16.960985,1042.8979 16.821985,1042.8899 L 16.659985,1042.8839 L 15.954985,1042.8839 z "
       id="path15583" />
    <path
       id="path15585"
       d="M 21.373085,1040.7937 L 21.373085,1049.0677 L 12.582085,1049.0677 L 12.582085,1040.7937 L 21.373085,1040.7937 z M 14.889085,1041.9537 L 14.889085,1047.9107 L 17.131085,1047.9107 C 17.131085,1047.9107 18.226085,1047.9427 18.828085,1047.3387 C 19.321085,1046.8467 19.285085,1046.2787 19.285085,1046.2787 C 19.285085,1046.2787 19.321085,1045.6847 18.865085,1045.2297 C 18.478085,1044.8407 17.983085,1044.7377 17.983085,1044.7377 C 17.983085,1044.7377 18.207085,1044.6337 18.379085,1044.4617 C 18.459085,1044.3817 18.744085,1044.1217 18.744085,1043.4947 C 18.744085,1042.8627 18.323085,1042.4987 18.323085,1042.4987 C 18.323085,1042.4987 17.863085,1041.9537 16.822085,1041.9537 L 14.889085,1041.9537 z "
       style="fill:#000000;fill-rule:nonzero;stroke:none" />
    <path
       style="fill:#000000;fill-rule:nonzero;stroke:none"
       d="M 5.8259852,1045.357 L 5.8259852,1046.982 L 6.8809852,1046.982 L 6.9379852,1046.98 L 7.0839852,1046.972 C 7.1989852,1046.96 7.3499852,1046.941 7.4959852,1046.892 C 7.6279852,1046.847 7.7579852,1046.779 7.8559852,1046.681 L 7.9499852,1046.564 C 8.0329852,1046.433 8.0549852,1046.3 8.0589852,1046.226 L 8.0609852,1046.173 L 8.0609852,1046.134 L 8.0389852,1045.976 L 7.9159852,1045.728 L 7.8749852,1045.683 L 7.7809852,1045.599 L 7.5849852,1045.49 C 7.4899852,1045.449 7.3849852,1045.417 7.2679852,1045.396 L 7.0799852,1045.368 L 6.9579852,1045.361 L 6.8479852,1045.357 L 5.8259852,1045.357"
       id="path15589" />
    <path
       style="fill:#000000;fill-rule:nonzero;stroke:none"
       d="M 5.8259852,1042.8839 L 5.8259852,1044.4249 L 6.3369852,1044.4249 L 6.4159852,1044.4249 L 6.5309852,1044.4189 C 6.6369852,1044.4109 6.7819852,1044.3959 6.9279852,1044.3549 L 7.0119852,1044.3289 C 7.1259852,1044.2879 7.2369852,1044.2279 7.3219852,1044.1459 L 7.4619852,1043.9329 L 7.5179852,1043.6999 L 7.5219852,1043.6149 L 7.5199852,1043.5479 C 7.5179852,1043.4799 7.5029852,1043.3719 7.4499852,1043.2669 L 7.3419852,1043.1199 L 7.1389852,1042.9879 C 6.9949852,1042.9229 6.8309852,1042.8979 6.6929852,1042.8899 L 6.5309852,1042.8839 L 5.8259852,1042.8839"
       id="path15593" />
    <path
       id="path15595"
       d="M 11.244085,1040.7937 L 11.244085,1049.0677 L 2.4530852,1049.0677 L 2.4530852,1040.7937 L 11.244085,1040.7937 z M 4.7600852,1041.9537 L 4.7600852,1047.9107 L 7.0020852,1047.9107 C 7.0020852,1047.9107 8.0960852,1047.9427 8.6990852,1047.3387 C 9.1920852,1046.8467 9.1560852,1046.2787 9.1560852,1046.2787 C 9.1560852,1046.2787 9.1920852,1045.6847 8.7370852,1045.2297 C 8.3480852,1044.8407 7.8540852,1044.7377 7.8540852,1044.7377 C 7.8540852,1044.7377 8.0770852,1044.6337 8.2490852,1044.4617 C 8.3290852,1044.3817 8.6150852,1044.1217 8.6150852,1043.4947 C 8.6150852,1042.8627 8.1950852,1042.4987 8.1950852,1042.4987 C 8.1950852,1042.4987 7.7340852,1041.9537 6.6940852,1041.9537 L 4.7600852,1041.9537 z "
       style="fill:#000000;fill-rule:nonzero;stroke:none" />
    <path
       style="fill:#000000;fill-rule:nonzero;stroke:none"
       d="M 38.335985,1039.173 L 44.179985,1045.023 L 38.335985,1050.868 L 32.492985,1045.017 L 38.335985,1039.173 z "
       id="path15599" />
    <path
       style="fill:#ffffff;fill-rule:nonzero;stroke:none"
       d="M 37.755985,1043.372 L 38.394985,1042.782 L 38.390985,1047.238 L 37.755985,1046.566 L 37.755985,1045.302 L 35.249985,1045.302 L 35.249985,1047.243 L 34.611985,1046.572 L 34.611985,1043.374 L 35.249985,1042.782 L 35.249985,1044.71 L 37.755985,1044.71 L 37.755985,1043.372 z "
       id="path15603" />
    <path
       style="fill:#ffffff;fill-rule:nonzero;stroke:none"
       d="M 38.390985,1047.236 L 38.390985,1047.236 L 39.029985,1046.667 L 39.841985,1046.667 C 40.160985,1046.667 40.408985,1046.646 40.585985,1046.605 C 40.763985,1046.56 40.909985,1046.505 41.027985,1046.439 C 41.146985,1046.37 41.253985,1046.286 41.352985,1046.189 C 41.667985,1045.87 41.824985,1045.466 41.824985,1044.978 C 41.824985,1044.499 41.662985,1044.109 41.339985,1043.808 C 41.220985,1043.695 41.083985,1043.601 40.927985,1043.529 C 40.774985,1043.456 40.628985,1043.409 40.489985,1043.386 C 40.352985,1043.363 40.130985,1043.351 39.822985,1043.351 L 39.025985,1043.351 L 38.392985,1042.782 L 39.890985,1042.782 C 40.496985,1042.782 40.977985,1042.874 41.329985,1043.056 C 41.683985,1043.238 41.964985,1043.505 42.173985,1043.859 C 42.380985,1044.212 42.486985,1044.597 42.486985,1045.015 C 42.486985,1045.312 42.427985,1045.597 42.313985,1045.87 C 42.197985,1046.142 42.033985,1046.382 41.821985,1046.589 C 41.605985,1046.802 41.352985,1046.962 41.065985,1047.07 C 40.897985,1047.136 40.741985,1047.181 40.602985,1047.204 C 40.462985,1047.226 40.193985,1047.236 39.796985,1047.236 L 38.390985,1047.236 L 39.796985,1047.236 C 40.193985,1047.236 40.462985,1047.226 40.602985,1047.204 C 40.741985,1047.181 40.897985,1047.136 41.065985,1047.07 C 41.352985,1046.962 41.605985,1046.802 41.821985,1046.589 C 42.033985,1046.382 42.197985,1046.142 42.313985,1045.87 C 42.427985,1045.597 42.486985,1045.312 42.486985,1045.015 C 42.486985,1044.597 42.380985,1044.212 42.173985,1043.859 C 41.964985,1043.505 41.683985,1043.238 41.329985,1043.056 C 40.977985,1042.874 40.496985,1042.782 39.890985,1042.782 L 38.392985,1042.782 L 39.025985,1043.351 L 39.822985,1043.351 C 40.130985,1043.351 40.352985,1043.363 40.489985,1043.386 C 40.628985,1043.409 40.774985,1043.456 40.927985,1043.529 C 41.083985,1043.601 41.220985,1043.695 41.339985,1043.808 C 41.662985,1044.109 41.824985,1044.499 41.824985,1044.978 C 41.824985,1045.466 41.667985,1045.87 41.352985,1046.189 C 41.253985,1046.286 41.146985,1046.37 41.027985,1046.439 C 40.909985,1046.505 40.763985,1046.56 40.585985,1046.605 C 40.408985,1046.646 40.160985,1046.667 39.841985,1046.667 L 39.029985,1046.667 L 38.390985,1047.236 z "
       id="path15607" />
    <path
       style="fill:#ffffff;fill-rule:nonzero;stroke:none"
       d="M 38.390985,1047.236 L 39.029985,1046.667 L 39.841985,1046.667 C 40.160985,1046.667 40.408985,1046.646 40.585985,1046.605 C 40.763985,1046.56 40.909985,1046.505 41.027985,1046.439 C 41.146985,1046.37 41.253985,1046.286 41.352985,1046.189 C 41.667985,1045.87 41.824985,1045.466 41.824985,1044.978 C 41.824985,1044.499 41.662985,1044.109 41.339985,1043.808 C 41.220985,1043.695 41.083985,1043.601 40.927985,1043.529 C 40.774985,1043.456 40.628985,1043.409 40.489985,1043.386 C 40.352985,1043.363 40.130985,1043.351 39.822985,1043.351 L 39.025985,1043.351 L 38.392985,1042.782 L 39.890985,1042.782 C 40.496985,1042.782 40.977985,1042.874 41.329985,1043.056 C 41.683985,1043.238 41.964985,1043.505 42.173985,1043.859 C 42.380985,1044.212 42.486985,1044.597 42.486985,1045.015 C 42.486985,1045.312 42.427985,1045.597 42.313985,1045.87 C 42.197985,1046.142 42.033985,1046.382 41.821985,1046.589 C 41.605985,1046.802 41.352985,1046.962 41.065985,1047.07 C 40.897985,1047.136 40.741985,1047.181 40.602985,1047.204 C 40.462985,1047.226 40.193985,1047.236 39.796985,1047.236 L 38.390985,1047.236 z "
       id="path15611" />
    <path
       style="fill:#838181;fill-rule:nonzero;stroke:none"
       d="M 39.029985,1043.355 L 38.391985,1042.782 L 38.391985,1047.236 L 39.029985,1046.667 L 39.029985,1045.302 L 39.029985,1044.71 L 39.029985,1043.355 z "
       id="path15615" />
    <path
       style="fill:#44463f;fill-rule:nonzero;stroke:none"
       d="M 35.248985,1045.302 L 35.246985,1047.24 L 35.885985,1046.665 L 35.883985,1045.302 L 35.248985,1045.302 z "
       id="path15619" />
    <path
       style="fill:#44463f;fill-rule:nonzero;stroke:none"
       d="M 35.900985,1044.71 L 35.888985,1043.374 L 35.249985,1042.782 L 35.249985,1044.71 L 35.900985,1044.71 z "
       id="path15623" />
    <g
       clip-path="url(#id577)"
       id="g17483"
       transform="matrix(0,1,1,0,-212.51567,189.37788)">
      <g
         transform="matrix(0,0.2640228,-7.223999,0,581.48639,52.187882)"
         id="g17485">
        <use
           height="1052.3622"
           width="744.09448"
           y="0"
           x="0"
           xlink:href="#id578"
           id="use17487" />
      </g>
    </g>
    <g
       clip-path="url(#id579)"
       id="g17489"
       transform="matrix(0,1,1,0,-212.51567,189.37788)">
      <g
         transform="matrix(0,0.2639923,-12.984009,0,588.44629,140.74791)"
         id="g17491">
        <use
           height="1052.3622"
           width="744.09448"
           y="0"
           x="0"
           xlink:href="#id580"
           id="use17493" />
      </g>
    </g>
    <g
       clip-path="url(#id817)"
       id="g18221"
       transform="matrix(0,1,1,0,-212.51567,189.37788)">
      <g
         transform="matrix(0,0.2640228,-0.2640076,0,580.76636,54.947891)"
         id="g18223">
        <use
           height="1052.3622"
           width="744.09448"
           y="0"
           x="0"
           xlink:href="#id818"
           id="use18225" />
      </g>
    </g>
    <g
       clip-path="url(#id911)"
       id="g18631"
       transform="matrix(0,1,1,0,-212.51567,189.37788)">
      <g
         transform="matrix(0,0.2640228,-7.3439941,0,637.04639,52.187882)"
         id="g18633">
        <use
           height="1052.3622"
           width="744.09448"
           y="0"
           x="0"
           xlink:href="#id578"
           id="use18635" />
      </g>
    </g>
    <g
       clip-path="url(#id912)"
       id="g18637"
       transform="matrix(0,1,1,0,-212.51567,189.37788)">
      <g
         transform="matrix(0,0.2639923,-12.983994,0,644.00635,140.74791)"
         id="g18639">
        <use
           height="1052.3622"
           width="744.09448"
           y="0"
           x="0"
           xlink:href="#id580"
           id="use18641" />
      </g>
    </g>
    <g
       clip-path="url(#id1034)"
       id="g19369"
       transform="matrix(0,1,1,0,-212.51567,189.37788)">
      <g
         transform="matrix(0,0.2640228,-0.2639923,0,636.32642,54.947891)"
         id="g19371">
        <use
           height="1052.3622"
           width="744.09448"
           y="0"
           x="0"
           xlink:href="#id818"
           id="use19373" />
      </g>
    </g>
    <g
       id="g22429"
       transform="matrix(0,1,1,0,333.33572,559.71418)" />
    <g
       id="g22443"
       transform="matrix(0,1,1,0,257.46572,561.02718)">
      <path
         id="path22445"
         d="M 0,0 L 0.002,0"
         style="fill:#e31937;fill-rule:nonzero;stroke:none" />
    </g>
    <g
       id="g22467"
       transform="matrix(0,1,1,0,256.55372,559.22018)">
      <path
         id="path22469"
         d="M 0,0 L 0.002,0"
         style="fill:#e31937;fill-rule:nonzero;stroke:none" />
    </g>
    <g
       id="g22491"
       transform="matrix(0,1,1,0,391.40372,561.06818)">
      <path
         id="path22493"
         d="M 0,0 L 0.002,0"
         style="fill:#1a89ca;fill-rule:nonzero;stroke:none" />
    </g>
    <g
       id="g22495"
       transform="matrix(0,1,1,0,391.40372,561.06818)">
      <path
         id="path22497"
         d="M 0,0 L 0.002,0 L 0,0 z "
         style="fill:#000000;fill-rule:nonzero;stroke:none" />
    </g>
    <g
       id="g22519"
       transform="matrix(0,1,1,0,390.50772,559.28918)">
      <path
         id="path22521"
         d="M 0,0 L 0.002,0"
         style="fill:#1a89ca;fill-rule:nonzero;stroke:none" />
    </g>
    <g
       id="g22523"
       transform="matrix(0,1,1,0,390.50772,559.28918)">
      <path
         id="path22525"
         d="M 0,0 L 0.002,0 L 0,0 z "
         style="fill:#000000;fill-rule:nonzero;stroke:none" />
    </g>
  </g>
</svg>
